REM DIRINDEX 1\2\6,1\2\7,1\2\8,1\2\9,1\3\10,1\3\11,1\4\12,1\4\13,1\4\14,1\5\15,1\5\16,1\5\17
REM DIRNAME folder01,folder02,folder03,folder04,folder05,folder06,folder07,folder08,folder09,folder10,folder11,folder12,folder13,folder14,folder15,folder16,folder17
TITLE ""
FILE "1900_3_044 sec08_0716_0731.mp3" MP3
  TRACK 01 AUDIO
    TITLE "0:"
    INDEX 01 00:00:00
  TRACK 02 AUDIO
    TITLE "17:cjc020_7405"
    INDEX 01 00:00:17
  TRACK 03 AUDIO
    TITLE "0:"
    INDEX 01 00:01:36
  TRACK 04 AUDIO
    TITLE "16:cjc020_7406"
    INDEX 01 00:01:40
  TRACK 05 AUDIO
    TITLE "0:"
    INDEX 01 00:02:69
  TRACK 06 AUDIO
    TITLE "17:cjc020_7407"
    INDEX 01 00:03:55
  TRACK 07 AUDIO
    TITLE "0:"
    INDEX 01 00:04:70
  TRACK 08 AUDIO
    TITLE "16:cjc020_7408"
    INDEX 01 00:05:01
  TRACK 09 AUDIO
    TITLE "0:"
    INDEX 01 00:06:10
  TRACK 10 AUDIO
    TITLE "17:cjc020_7409"
    INDEX 01 00:06:69
  TRACK 11 AUDIO
    TITLE "0:"
    INDEX 01 00:08:07
  TRACK 12 AUDIO
    TITLE "16:cjc020_7410"
    INDEX 01 00:08:15
  TRACK 13 AUDIO
    TITLE "0:"
    INDEX 01 00:09:18
  TRACK 14 AUDIO
    TITLE "17:cjc020_7411"
    INDEX 01 00:10:02
  TRACK 15 AUDIO
    TITLE "0:"
    INDEX 01 00:12:46
  TRACK 16 AUDIO
    TITLE "16:cjc020_7412"
    INDEX 01 00:12:50
  TRACK 17 AUDIO
    TITLE "0:"
    INDEX 01 00:13:69
  TRACK 18 AUDIO
    TITLE "17:cjc020_7413"
    INDEX 01 00:14:49
  TRACK 19 AUDIO
    TITLE "0:"
    INDEX 01 00:15:48
  TRACK 20 AUDIO
    TITLE "16:cjc020_7414"
    INDEX 01 00:15:58
  TRACK 21 AUDIO
    TITLE "0:"
    INDEX 01 00:16:65
  TRACK 22 AUDIO
    TITLE "17:cjc020_7415"
    INDEX 01 00:17:45
  TRACK 23 AUDIO
    TITLE "0:"
    INDEX 01 00:18:60
  TRACK 24 AUDIO
    TITLE "16:cjc020_7416"
    INDEX 01 00:18:68
  TRACK 25 AUDIO
    TITLE "0:"
    INDEX 01 00:20:00
  TRACK 26 AUDIO
    TITLE "17:cjc020_7417"
    INDEX 01 00:20:55
  TRACK 27 AUDIO
    TITLE "0:"
    INDEX 01 00:21:70
  TRACK 28 AUDIO
    TITLE "16:cjc020_7418"
    INDEX 01 00:22:07
  TRACK 29 AUDIO
    TITLE "0:"
    INDEX 01 00:23:03
  TRACK 30 AUDIO
    TITLE "17:cjc020_7419"
    INDEX 01 00:23:59
  TRACK 31 AUDIO
    TITLE "0:"
    INDEX 01 00:25:09
  TRACK 32 AUDIO
    TITLE "16:cjc020_7420"
    INDEX 01 00:25:13
  TRACK 33 AUDIO
    TITLE "0:"
    INDEX 01 00:26:18
  TRACK 34 AUDIO
    TITLE "17:cjc020_7421"
    INDEX 01 00:27:02
  TRACK 35 AUDIO
    TITLE "0:"
    INDEX 01 00:28:19
  TRACK 36 AUDIO
    TITLE "16:cjc020_7422"
    INDEX 01 00:28:25
  TRACK 37 AUDIO
    TITLE "0:"
    INDEX 01 00:29:33
  TRACK 38 AUDIO
    TITLE "17:cjc020_7423"
    INDEX 01 00:30:18
  TRACK 39 AUDIO
    TITLE "0:"
    INDEX 01 00:32:00
  TRACK 40 AUDIO
    TITLE "16:cjc020_7424"
    INDEX 01 00:32:05
  TRACK 41 AUDIO
    TITLE "0:"
    INDEX 01 00:33:32
  TRACK 42 AUDIO
    TITLE "17:cjc020_7425"
    INDEX 01 00:34:16
  TRACK 43 AUDIO
    TITLE "0:"
    INDEX 01 00:35:43
  TRACK 44 AUDIO
    TITLE "16:cjc020_7426"
    INDEX 01 00:35:53
  TRACK 45 AUDIO
    TITLE "0:"
    INDEX 01 00:36:70
  TRACK 46 AUDIO
    TITLE "17:cjc020_7427"
    INDEX 01 00:37:57
  TRACK 47 AUDIO
    TITLE "0:"
    INDEX 01 00:38:57
  TRACK 48 AUDIO
    TITLE "16:cjc020_7428"
    INDEX 01 00:38:67
  TRACK 49 AUDIO
    TITLE "0:"
    INDEX 01 00:40:03
  TRACK 50 AUDIO
    TITLE "17:cjc020_7429"
    INDEX 01 00:40:60
  TRACK 51 AUDIO
    TITLE "0:"
    INDEX 01 00:42:06
  TRACK 52 AUDIO
    TITLE "16:cjc020_7430"
    INDEX 01 00:42:12
  TRACK 53 AUDIO
    TITLE "0:"
    INDEX 01 00:43:21
  TRACK 54 AUDIO
    TITLE "17:cjc020_7431"
    INDEX 01 00:44:07
  TRACK 55 AUDIO
    TITLE "0:"
    INDEX 01 00:45:33
  TRACK 56 AUDIO
    TITLE "16:cjc020_7432"
    INDEX 01 00:45:41
  TRACK 57 AUDIO
    TITLE "0:"
    INDEX 01 00:46:56
  TRACK 58 AUDIO
    TITLE "17:cjc020_7433"
    INDEX 01 00:47:36
  TRACK 59 AUDIO
    TITLE "0:"
    INDEX 01 00:48:55
  TRACK 60 AUDIO
    TITLE "16:cjc020_7434"
    INDEX 01 00:48:59
  TRACK 61 AUDIO
    TITLE "0:"
    INDEX 01 00:50:05
  TRACK 62 AUDIO
    TITLE "17:cjc020_7435"
    INDEX 01 00:50:62
  TRACK 63 AUDIO
    TITLE "0:"
    INDEX 01 00:51:52
  TRACK 64 AUDIO
    TITLE "16:cjc020_7436"
    INDEX 01 00:51:60
  TRACK 65 AUDIO
    TITLE "0:"
    INDEX 01 00:52:59
